# xmcd CD database file
#
# Track frame offsets:
#	150
#	13312
#	37289
#	60999
#	74579
#
# Disc length: 1324 seconds
#
# Revision: 0
# Processed by: cddbd v1.5.2PL0 Copyright (c) Steve Scherf et al.
# Submitted via: CDex 1.70beta2
#
DISCID=47052a05
DTITLE=Quincy Jones - L'enfance de l'art -Mon CD jazz magazine
DYEAR=2016
DGENRE=Jazz
TTITLE0=Lionel Hampton - King Fish
TTITLE1=Art Farmer - Mau Mau
TTITLE2=Quincy Jones - Doodlin'
TTITLE3=	 - The Birth of a Band
TTITLE4=	 - Chega De Saudade
EXTD=YEAR: 2016
EXTT0=
EXTT1=
EXTT2=
EXTT3=
EXTT4=
PLAYORDER=
